<svg width="354" height="311" viewBox="0 0 354 311" fill="none" xmlns="http://www.w3.org/2000/svg">
<path opacity="0.2" d="M56 187C12.4 199 19.1667 248.5 28.5 273.5C67.9801 268.415 130.358 259.466 192 268C254.5 255.5 298.814 280.235 315.5 273.5C398.5 240 320 187.5 315.5 164C290 7.5 187 72.5 149 79C19.5 90.5 110.5 172 56 187Z" fill="#E89923" fill-opacity="0.5"/>
<ellipse opacity="0.5" cx="175" cy="287" rx="175" ry="24" fill="#182936" fill-opacity="0.54"/>
<path d="M186.302 288.264C186.142 287.065 187.075 286 188.284 286H201.139C202.375 286 203.315 287.11 203.112 288.329L201.279 299.329C201.118 300.293 200.283 301 199.306 301H189.751C188.749 301 187.901 300.258 187.769 299.264L186.302 288.264Z" fill="#182936"/>
<path d="M125.302 264.264C125.142 263.065 126.075 262 127.284 262H140.139C141.375 262 142.315 263.11 142.112 264.329L140.279 275.329C140.118 276.293 139.283 277 138.306 277H128.751C127.749 277 126.901 276.258 126.769 275.264L125.302 264.264Z" fill="#182936"/>
<path d="M235.302 273.264C235.142 272.065 236.075 271 237.284 271H250.139C251.375 271 252.315 272.11 252.112 273.329L250.279 284.329C250.118 285.293 249.283 286 248.306 286H238.751C237.749 286 236.901 285.258 236.769 284.264L235.302 273.264Z" fill="#182936"/>
<path d="M121 261.5C108.6 205.5 146 181 166 178C226 164.4 210.333 247.667 195 291C166.6 285 133.667 270.333 121 261.5Z" fill="#CFCFCF"/>
<path d="M120.5 293.5C123.333 289.833 129.7 282.1 132.5 280.5H142V288L120.5 293.5Z" fill="#079B8D"/>
<path d="M151.5 288L151.5 288H160L163 295L139 301C142.5 297 150.7 288.8 151.5 288Z" fill="#079B8D"/>
<path d="M132.5 280.5C109.3 218.1 146.5 195.833 168 192.5L225.5 219.5C201.5 225 153.2 243.2 160 288H151C146.054 272.824 144.809 260.083 145.95 249.5C143.967 256 140.4 271.3 142 280.5H132.5Z" fill="#182936"/>
<path d="M264 195.5C268.331 233.096 266.898 252.979 257 269C251.352 278.141 240.429 280.235 230.5 284C217.654 288.871 205.46 293.926 198 293.5C196.969 275.865 190 238 206.5 199.5C216.5 181.5 183.075 175.224 178.5 161.5C166.5 125.5 195.5 118.833 211.5 120C277.9 122 274.167 171.167 264 195.5Z" fill="#E7E5E5"/>
<path d="M243.903 186.004C182.711 188.458 180.855 255.168 187.892 288.985C187.96 289.314 188.188 289.574 188.502 289.696L197.898 293.373C198.612 293.653 199.367 293.079 199.271 292.317C195.43 262.071 202.642 202.138 254.44 189.822C255.557 189.557 255.547 187.738 254.412 187.567L244.093 186.014C244.031 186.005 243.966 186.001 243.903 186.004Z" fill="#ECECEC"/>
<path d="M215 202.286C273.8 168.286 235.667 137.667 209 126.5H195.5L195.477 126.506C189.308 128.006 178.99 130.516 170.5 143.5C167.574 147.976 161.786 157.997 159.5 167.5C155.542 183.952 156.054 200.347 168.084 193C170.889 199.667 177.8 211 199 209L204.5 202.5L208 199C209.446 199.666 214 202.286 215 202.286Z" fill="#089C8C"/>
<path d="M170 179.5C173 177 179.8 172 183 172M184.5 177C180.333 181.833 171.2 191.7 168 192.5M208.5 198.5C216.167 190.333 229.5 174.2 221.5 167" stroke="#182936"/>
<path d="M184.525 162.531C184.514 161.978 184.952 161.521 185.504 161.51L194.948 161.311C195.521 161.299 195.986 161.77 195.968 162.343L195.431 179.358C195.414 179.889 194.984 180.315 194.452 180.326L185.903 180.506C185.351 180.517 184.894 180.079 184.882 179.527L184.525 162.531Z" fill="#182936"/>
<path d="M195.5 171C191.5 168.6 185.5 170 183 171L185 176.5C187 177 200.5 174 195.5 171Z" fill="#F3BBBB"/>
<path d="M204.5 209C202.9 206.2 205.833 201 208 199C210.333 199.833 215.7 202.1 214.5 202.5C213 203 206.5 212.5 204.5 209Z" fill="#F3BBBB"/>
<path d="M212 127.5L206 135.5L199.594 131.103L190 135.5L188 128L189 127.5L203.5 124L212 127.5Z" fill="#EDEDED"/>
<path d="M218.455 106.837C218.455 103.698 216.025 103.785 214.809 104.221L207.062 109.452L207.517 112.503C206.91 113.811 205.508 117.338 209.883 116.641C212.01 117.222 212.344 119.692 213.074 119.692C213.985 119.692 223.556 120.349 220.821 115.554C223.738 111.021 220.582 106.837 218.455 106.837Z" fill="#182936" fill-opacity="0.12"/>
<path d="M176.614 115.554C174.791 112.765 178.198 111.41 179.717 111.41C183.211 114.607 188.558 121 181.995 121C175.433 121 175.399 117.589 176.614 115.554Z" fill="#182936" fill-opacity="0.12"/>
<circle cx="197" cy="113" r="18" fill="#F3BBBB"/>
<circle cx="194" cy="164" r="1" fill="#182936"/>
<circle cx="194" cy="164" r="0.5" fill="#C4C4C4"/>
<path d="M146.025 251C145.64 243.464 149.495 225.314 168 213" stroke="#182936"/>
<path d="M197.823 92.0658C209.309 91.5013 212.266 95.5658 216.823 100.066C223.337 106.499 218.823 109.663 217.323 108.647C216.008 109.998 211.223 109.642 209.823 110.566C218.314 120.362 172.959 112.492 173.958 112.443C174.757 112.404 176.503 109.896 177.276 108.647C171.476 106.917 176.423 101.274 178.823 99.0658C181.696 96.4215 186.337 92.6303 197.823 92.0658Z" fill="#182936"/>
<circle cx="216" cy="116" r="4" fill="#F3BBBB"/>
<rect x="179.071" y="117.961" width="13" height="5" rx="1" transform="rotate(0.882628 179.071 117.961)" fill="white"/>
<rect x="196.069" y="118.222" width="13" height="5" rx="1" transform="rotate(0.882628 196.069 118.222)" fill="white"/>
<line x1="192.031" y1="120.66" x2="196.03" y2="120.722" stroke="#5C5C5C"/>
<path d="M265.274 246.242C265.128 245.051 266.058 244 267.259 244H309.672C310.896 244 311.834 245.091 311.649 246.302L305.545 286.302C305.396 287.278 304.556 288 303.568 288H272.142C271.131 288 270.279 287.246 270.157 286.242L265.274 246.242Z" fill="#182936"/>
<path d="M289.465 243.456C288.376 229.221 279.602 198.883 253.213 191.409" stroke="#182936" stroke-width="3"/>
<path d="M299.81 225.972C295.703 227.372 288.143 237.687 289.382 237.264C288.143 237.687 300.458 241.93 304.565 240.53C308.671 239.131 310.889 234.595 309.519 230.4C308.149 226.206 303.916 224.573 299.81 225.972Z" fill="#182936"/>
<path d="M276.072 231.593C280.348 230.904 291.708 236.503 290.418 236.711C291.708 236.503 282.689 246.063 278.413 246.752C274.137 247.441 270.123 244.459 269.449 240.091C268.774 235.722 271.796 232.282 276.072 231.593Z" fill="#182936"/>
<path d="M291.346 211.795C288.42 214.209 285.323 224.934 286.205 224.205C285.323 224.934 296.593 224.543 299.518 222.129C302.443 219.715 302.906 215.344 300.551 212.366C298.196 209.388 294.271 209.381 291.346 211.795Z" fill="#182936"/>
<path d="M271.316 220.25C275.048 219.775 284.755 224.941 283.629 225.084C284.755 224.941 276.657 232.957 272.925 233.433C269.194 233.908 265.792 231.214 265.329 227.416C264.865 223.617 267.584 220.725 271.316 220.25Z" fill="#182936"/>
<path d="M283.167 199.867C280.861 202.327 279.32 212.115 280.016 211.373C279.32 212.115 289.188 210.474 291.494 208.014C293.801 205.554 293.725 201.657 291.325 199.309C288.926 196.962 285.473 197.407 283.167 199.867Z" fill="#182936"/>
<path d="M266.91 207.197C270.225 206.828 278.76 211.546 277.76 211.658C278.76 211.546 271.472 218.538 268.157 218.907C264.842 219.275 261.864 216.838 261.504 213.464C261.145 210.09 263.595 207.565 266.91 207.197Z" fill="#182936"/>
<path d="M271.054 189.873C269.59 192.592 270.484 201.575 270.926 200.755C270.484 201.575 278.792 197.764 280.256 195.046C281.72 192.327 280.758 188.916 278.106 187.425C275.455 185.935 272.518 187.155 271.054 189.873Z" fill="#182936"/>
<path d="M259.404 203.175C261.674 201.114 270.448 200.015 269.763 200.637C270.448 200.015 268.65 209.135 266.379 211.196C264.109 213.256 260.639 213.053 258.629 210.742C256.619 208.431 257.133 205.236 259.404 203.175Z" fill="#182936"/>
<path d="M260.447 186.042C259.741 188.275 261.664 194.814 261.877 194.14C261.664 194.814 267.298 190.769 268.004 188.537C268.71 186.304 267.517 183.912 265.34 183.193C263.162 182.474 261.153 183.81 260.447 186.042Z" fill="#182936"/>
<path d="M253.117 198.25C254.351 196.271 260.509 193.615 260.137 194.212C260.509 193.615 261.05 200.628 259.816 202.607C258.583 204.586 256.018 205.172 254.088 203.917C252.157 202.661 251.884 200.228 253.117 198.25Z" fill="#182936"/>
<path d="M248.173 193.856C250.478 194.765 257.469 193.048 256.773 192.774C257.469 193.048 253.554 186.624 251.249 185.715C248.945 184.806 246.358 185.971 245.471 188.317C244.585 190.663 245.868 192.948 248.173 193.856Z" fill="#182936"/>
<path d="M289.826 245.079C291.267 226.53 302.88 186.999 337.807 177.261" stroke="#E89923" stroke-width="3"/>
<path d="M276.134 222.297C281.569 224.121 291.576 237.561 289.936 237.011C291.576 237.561 275.276 243.09 269.841 241.267C264.406 239.443 261.47 233.533 263.284 228.067C265.097 222.601 270.699 220.473 276.134 222.297Z" fill="#E89923"/>
<path d="M307.552 229.621C301.893 228.723 286.856 236.02 288.564 236.291C286.856 236.02 298.794 248.476 304.454 249.374C310.113 250.272 315.425 246.386 316.318 240.694C317.211 235.002 313.212 230.519 307.552 229.621Z" fill="#E89923"/>
<path d="M287.337 203.824C291.208 206.97 295.308 220.944 294.14 219.994C295.308 220.944 280.392 220.435 276.52 217.289C272.648 214.143 272.036 208.448 275.153 204.568C278.27 200.688 283.465 200.678 287.337 203.824Z" fill="#E89923"/>
<path d="M313.847 214.841C308.907 214.221 296.059 220.953 297.55 221.14C296.059 220.953 306.777 231.399 311.716 232.018C316.656 232.638 321.157 229.128 321.771 224.178C322.385 219.228 318.786 215.46 313.847 214.841Z" fill="#E89923"/>
<path d="M298.161 188.282C301.214 191.487 303.253 204.241 302.332 203.274C303.253 204.241 290.192 202.103 287.14 198.897C284.087 195.692 284.188 190.613 287.363 187.555C290.539 184.496 295.109 185.076 298.161 188.282Z" fill="#E89923"/>
<path d="M319.678 197.832C315.291 197.352 303.994 203.5 305.318 203.645C303.994 203.5 313.64 212.61 318.027 213.09C322.415 213.57 326.357 210.395 326.832 205.999C327.308 201.602 324.065 198.312 319.678 197.832Z" fill="#E89923"/>
<path d="M314.193 175.259C316.131 178.801 314.947 190.507 314.362 189.439C314.947 190.507 303.952 185.541 302.014 181.999C300.076 178.457 301.35 174.011 304.859 172.069C308.369 170.127 312.255 171.717 314.193 175.259Z" fill="#E89923"/>
<path d="M329.613 192.592C326.607 189.907 314.995 188.475 315.902 189.285C314.995 188.475 317.375 200.358 320.381 203.043C323.386 205.728 327.978 205.463 330.639 202.452C333.299 199.44 332.618 195.277 329.613 192.592Z" fill="#E89923"/>
<path d="M328.232 170.267C329.167 173.176 326.622 181.697 326.34 180.819C326.622 181.697 319.165 176.426 318.23 173.518C317.295 170.609 318.874 167.491 321.756 166.555C324.638 165.618 327.297 167.358 328.232 170.267Z" fill="#E89923"/>
<path d="M337.933 186.174C336.301 183.595 328.15 180.135 328.643 180.913C328.15 180.135 327.434 189.273 329.067 191.851C330.699 194.43 334.094 195.194 336.649 193.558C339.204 191.922 339.566 188.752 337.933 186.174Z" fill="#E89923"/>
<path d="M344.477 180.449C341.427 181.633 332.174 179.396 333.094 179.038C332.174 179.396 337.355 171.025 340.405 169.841C343.456 168.657 346.88 170.175 348.053 173.231C349.226 176.288 347.527 179.265 344.477 180.449Z" fill="#E89923"/>
<path d="M104.381 283.04C105.11 284.373 104.146 286 102.627 286L42.7901 286C41.1821 286 40.2315 284.199 41.1391 282.871L47.9758 272.871C48.3485 272.326 48.9664 272 49.6268 272L97.1571 272C97.8882 272 98.561 272.399 98.9118 273.04L104.381 283.04Z" fill="#182936"/>
<line x1="73.5" y1="104" x2="73.5" y2="277" stroke="#182936" stroke-width="5"/>
<line x1="89.5" y1="112" x2="89.5" y2="133" stroke="#182936"/>
<circle cx="89.5" cy="132.5" r="1.5" fill="#182936"/>
<path d="M106.701 115.738C106.86 116.936 105.927 118 104.719 118L42.3571 118C41.1225 118 40.1828 116.892 40.3838 115.674L49.2951 61.6744C49.4545 60.7085 50.2895 60 51.2684 60L97.5895 60C98.5929 60 99.441 60.7435 99.5723 61.7382L106.701 115.738Z" fill="#E89923"/>
<path d="M276 54C276 52.3431 277.343 51 279 51H329C330.657 51 332 52.3431 332 54V86C332 87.6569 330.657 89 329 89H260.436C259.37 89 259.044 87.5542 260.007 87.0967L275.429 79.7712C275.778 79.6056 276 79.254 276 78.8679V54Z" fill="white"/>
<path d="M159 3C159 1.34315 157.657 0 156 0H106C104.343 0 103 1.34315 103 3V35C103 36.6569 104.343 38 106 38H174.564C175.63 38 175.956 36.5542 174.993 36.0967L159.571 28.7712C159.222 28.6056 159 28.254 159 27.8679V3Z" fill="white"/>
<circle cx="304.5" cy="70" r="4.60714" fill="#182936"/>
<circle cx="321.393" cy="70" r="4.60714" fill="#182936"/>
<circle cx="287.607" cy="70" r="4.60714" fill="#182936"/>
<path d="M144.879 8.92268C150.985 21.4771 130.259 33 128.052 33C123.362 33 108.056 19.9199 111.5 11.3841C115.914 0.444587 128.052 7.55523 128.052 7.55523C128.052 7.55523 141.017 0.981075 144.879 8.92268Z" fill="#E89923"/>
</svg>
