<svg width="460" height="100" viewBox="0 0 460 100" fill="none" xmlns="http://www.w3.org/2000/svg">
<path d="M59.625 70.625H16.875L10.125 83H2.25L33.75 29H42.75L74.25 83H66.375L59.625 70.625ZM56.25 65L38.25 33.5L20.25 65H56.25ZM145.125 83H138.375V72.875C138.375 71.2344 138.34 69.8281 138.27 68.6562C138.223 67.4609 138.023 66.4414 137.672 65.5977C137.344 64.7539 136.816 64.0742 136.09 63.5586C135.363 63.043 134.332 62.6445 132.996 62.3633C131.66 62.082 129.961 61.8945 127.898 61.8008C125.859 61.6836 123.34 61.625 120.34 61.625H90V83H83.25V29H121.465C125.59 29 129.059 29.1523 131.871 29.457C134.707 29.7383 137.039 30.1719 138.867 30.7578C140.719 31.3438 142.137 32.0703 143.121 32.9375C144.129 33.8047 144.855 34.8242 145.301 35.9961C145.77 37.168 146.039 38.4805 146.109 39.9336C146.203 41.3867 146.25 42.9922 146.25 44.75C146.25 47 146.086 48.9805 145.758 50.6914C145.453 52.3789 144.926 53.8203 144.176 55.0156C143.426 56.2109 142.43 57.1719 141.188 57.8984C139.945 58.6016 138.387 59.0938 136.512 59.375C138.387 59.6562 139.887 60.1484 141.012 60.8516C142.137 61.5547 143.004 62.4688 143.613 63.5938C144.223 64.7188 144.621 66.0547 144.809 67.6016C145.02 69.1484 145.125 70.9062 145.125 72.875V83ZM90 56H121.465C124.465 56 126.984 55.9531 129.023 55.8594C131.086 55.7422 132.785 55.543 134.121 55.2617C135.457 54.9805 136.488 54.582 137.215 54.0664C137.941 53.5508 138.469 52.8711 138.797 52.0273C139.148 51.1836 139.348 50.1758 139.395 49.0039C139.465 47.8086 139.5 46.3906 139.5 44.75C139.5 43.2266 139.465 41.9141 139.395 40.8125C139.348 39.7109 139.148 38.7852 138.797 38.0352C138.469 37.2852 137.941 36.6875 137.215 36.2422C136.488 35.7969 135.457 35.457 134.121 35.2227C132.785 34.9648 131.086 34.8008 129.023 34.7305C126.984 34.6602 124.465 34.625 121.465 34.625H90V56ZM216.035 45.875C216.035 43.0625 215.73 40.8359 215.121 39.1953C214.512 37.5547 213.504 36.3125 212.098 35.4688C210.691 34.625 208.84 34.0859 206.543 33.8516C204.246 33.6172 201.41 33.5 198.035 33.5H179.965C176.965 33.5 174.434 33.5938 172.371 33.7812C170.332 33.9453 168.645 34.2969 167.309 34.8359C165.973 35.375 164.941 36.1484 164.215 37.1562C163.488 38.1641 162.961 39.5 162.633 41.1641C162.305 42.8281 162.117 44.8789 162.07 47.3164C162.023 49.7305 162 52.625 162 56C162 59.375 162.023 62.2812 162.07 64.7188C162.141 67.1328 162.34 69.1719 162.668 70.8359C162.996 72.5 163.512 73.8359 164.215 74.8438C164.941 75.8516 165.973 76.625 167.309 77.1641C168.645 77.7031 170.332 78.0664 172.371 78.2539C174.434 78.418 176.965 78.5 179.965 78.5H198.07C200.695 78.5 202.957 78.4297 204.855 78.2891C206.754 78.1484 208.371 77.8906 209.707 77.5156C211.043 77.1406 212.121 76.625 212.941 75.9688C213.762 75.3125 214.395 74.4922 214.84 73.5078C215.309 72.5 215.625 71.3047 215.789 69.9219C215.953 68.5156 216.035 66.875 216.035 65V61.625H188.965V56H222.785V65C222.785 67.25 222.645 69.2891 222.363 71.1172C222.082 72.9219 221.578 74.5391 220.852 75.9688C220.148 77.375 219.199 78.5938 218.004 79.625C216.809 80.6562 215.297 81.5117 213.469 82.1914C211.641 82.8477 209.461 83.3281 206.93 83.6328C204.398 83.9609 201.445 84.125 198.07 84.125H179.965C175.84 84.125 172.359 83.8672 169.523 83.3516C166.711 82.8594 164.391 82.1094 162.562 81.1016C160.734 80.0703 159.316 78.7812 158.309 77.2344C157.324 75.6875 156.598 73.8711 156.129 71.7852C155.684 69.6992 155.426 67.3438 155.355 64.7188C155.285 62.0938 155.25 59.1875 155.25 56C155.25 52.8125 155.285 49.9062 155.355 47.2812C155.426 44.6562 155.684 42.3008 156.129 40.2148C156.598 38.1289 157.324 36.3125 158.309 34.7656C159.316 33.2188 160.734 31.9414 162.562 30.9336C164.391 29.9023 166.711 29.1406 169.523 28.6484C172.359 28.1328 175.84 27.875 179.965 27.875H198.035C201.41 27.875 204.363 28.0391 206.895 28.3672C209.426 28.6719 211.605 29.1523 213.434 29.8086C215.262 30.4414 216.773 31.25 217.969 32.2344C219.188 33.2188 220.148 34.3789 220.852 35.7148C221.578 37.0508 222.082 38.5625 222.363 40.25C222.645 41.9375 222.785 43.8125 222.785 45.875H216.035ZM234.07 83V29H288.07V34.625H240.82V52.625H285.82V58.25H240.82V77.375H288.07V83H234.07Z" fill="#182936"/>
<path fill-rule="evenodd" clip-rule="evenodd" d="M454 17C454 14.2386 451.761 12 449 12H306C303.239 12 301 14.2386 301 17V83C301 85.7614 303.239 88 306 88H449C451.761 88 454 85.7614 454 83V17ZM371.875 51V27.3904C371.875 25.5179 370.357 24 368.485 24V24C366.61 24 365.092 25.5206 365.094 27.3948L365.125 51C365.125 54.375 365.102 57.2812 365.055 59.7188C365.008 62.1328 364.809 64.1719 364.457 65.8359C364.129 67.5 363.602 68.8359 362.875 69.8438C362.148 70.8516 361.117 71.625 359.781 72.1641C358.469 72.7031 356.781 73.0664 354.719 73.2539C352.656 73.418 350.137 73.5 347.16 73.5H331.34C328.34 73.5 325.809 73.418 323.746 73.2539C321.707 73.0664 320.02 72.7031 318.684 72.1641C317.348 71.625 316.316 70.8516 315.59 69.8438C314.887 68.8359 314.371 67.5 314.043 65.8359C313.715 64.1719 313.516 62.1328 313.445 59.7188C313.398 57.2812 313.375 54.375 313.375 51V27.375C313.375 25.511 311.864 24 310 24V24C308.136 24 306.625 25.511 306.625 27.375V51C306.625 54.1875 306.66 57.0938 306.73 59.7188C306.801 62.3438 307.059 64.6992 307.504 66.7852C307.973 68.8711 308.699 70.6875 309.684 72.2344C310.691 73.7812 312.109 75.0703 313.938 76.1016C315.766 77.1094 318.086 77.8594 320.898 78.3516C323.734 78.8672 327.215 79.125 331.34 79.125H347.16C351.285 79.125 354.754 78.8672 357.566 78.3516C360.402 77.8594 362.734 77.1094 364.562 76.1016C366.391 75.0703 367.797 73.7812 368.781 72.2344C369.766 70.6875 370.48 68.8711 370.926 66.7852C371.395 64.6992 371.664 62.3438 371.734 59.7188C371.828 57.0938 371.875 54.1875 371.875 51ZM442.319 78C445.248 78 446.631 74.3862 444.451 72.4307L422.993 53.1819C420.803 51.2178 420.774 47.797 422.929 45.7956L440.334 29.6376C442.501 27.6257 441.077 24 438.12 24V24C437.3 24 436.509 24.3101 435.908 24.8681L417.374 42.0598C415.478 43.818 412.555 43.8412 410.632 42.1132L391.383 24.8179C390.797 24.2913 390.037 24 389.249 24V24C386.32 24 384.937 27.6134 387.116 29.5694L405.273 45.8637C407.463 47.8285 407.491 51.2495 405.335 53.2503L384.734 72.3643C382.567 74.375 383.99 78 386.946 78V78C387.767 78 388.557 77.6897 389.158 77.1314L410.86 56.9865C412.754 55.2283 415.675 55.2031 417.599 56.9284L440.188 77.1843C440.774 77.7095 441.533 78 442.319 78V78Z" fill="#E89923"/>
</svg>
