<svg width="153" height="76" viewBox="0 0 153 76" fill="none" xmlns="http://www.w3.org/2000/svg">
<path fill-rule="evenodd" clip-rule="evenodd" d="M153 0H0V76H153V0ZM70.875 39V12H64.0898L64.125 39C64.125 42.375 64.1016 45.2812 64.0547 47.7188C64.0078 50.1328 63.8086 52.1719 63.457 53.8359C63.1289 55.5 62.6016 56.8359 61.875 57.8438C61.1484 58.8516 60.1172 59.625 58.7812 60.1641C57.4688 60.7031 55.7812 61.0664 53.7188 61.2539C51.6562 61.418 49.1367 61.5 46.1602 61.5H30.3398C27.3398 61.5 24.8086 61.418 22.7461 61.2539C20.707 61.0664 19.0195 60.7031 17.6836 60.1641C16.3477 59.625 15.3164 58.8516 14.5898 57.8438C13.8867 56.8359 13.3711 55.5 13.043 53.8359C12.7148 52.1719 12.5156 50.1328 12.4453 47.7188C12.3984 45.2812 12.375 42.375 12.375 39V12H5.625V39C5.625 42.1875 5.66016 45.0938 5.73047 47.7188C5.80078 50.3438 6.05859 52.6992 6.50391 54.7852C6.97266 56.8711 7.69922 58.6875 8.68359 60.2344C9.69141 61.7812 11.1094 63.0703 12.9375 64.1016C14.7656 65.1094 17.0859 65.8594 19.8984 66.3516C22.7344 66.8672 26.2148 67.125 30.3398 67.125H46.1602C50.2852 67.125 53.7539 66.8672 56.5664 66.3516C59.4023 65.8594 61.7344 65.1094 63.5625 64.1016C65.3906 63.0703 66.7969 61.7812 67.7812 60.2344C68.7656 58.6875 69.4805 56.8711 69.9258 54.7852C70.3945 52.6992 70.6641 50.3438 70.7344 47.7188C70.8281 45.0938 70.875 42.1875 70.875 39ZM149.66 66L117.914 37.5234L145.406 12H135.844L113.027 33.1641L89.4727 12H79.9102L108.352 37.5234L77.6602 66H87.2227L113.203 41.8828L140.098 66H149.66Z" fill="#536DFE"/>
</svg>
